# xmcd
# 
# Track frame offsets:
#     150
#     13058
#     25102
#     37001
#     48856
#     61993
#     70427
#     81559
#     91992
#     123496
#     133108
#     145352
#     158581
#     170925
#     181728
#     194731
#     207736
#     226527
#     241985
#     251363
#     268785
#     288079
#     311787
#     331043
#     340930
# 
# Disc length: 4710
# 
# Revision: 0
# Processed by: cddbd v1.5.2PL0 Copyright (c) Steve Scherf et al.
# Submitted via: fre:ac v1.0.17
# 
DISCID=73126419
DTITLE=Big Joe Turner - The very best of, CD 2
DYEAR=0
DGENRE=Blues
TTITLE0=Corrine, corrina
TTITLE1=Hide and seek
TTITLE2=Boogie woogie country girl
TTITLE3=The chicken and the hawk
TTITLE4=I get the blues when it rains
TTITLE5=Love roller coaster
TTITLE6=Midnight cannonball
TTITLE7=Trouble in mind
TTITLE8=Rebecca
TTITLE9=Red sails in the sunset
TTITLE10=The chill in on
TTITLE11=Still in love
TTITLE12=Oke-she-moke-she-pop
TTITLE13=Teenage letter
TTITLE14=Sweet sixteen
TTITLE15=Ti-ri-lee
TTITLE16=You are driving me crazy
TTITLE17=Until the real thing comes along
TTITLE18=We are gonna jump for joy
TTITLE19=Here comes your iceman
TTITLE20=St. Louis blues
TTITLE21=When i was young
TTITLE22=Pennies from heaven
TTITLE23=Morning glories
TTITLE24=Baby i still want you
EXTD=
EXTT0=
EXTT1=
EXTT2=
EXTT3=
EXTT4=
EXTT5=
EXTT6=
EXTT7=
EXTT8=
EXTT9=
EXTT10=
EXTT11=
EXTT12=
EXTT13=
EXTT14=
EXTT15=
EXTT16=
EXTT17=
EXTT18=
EXTT19=
EXTT20=
EXTT21=
EXTT22=
EXTT23=
EXTT24=
PLAYORDER=
